<mxfile host="65bd71144e">
    <diagram id="hr-uY_3-_HgErRcI7rIB" name="Page-1">
        <mxGraphModel dx="1528" dy="1058" grid="1" gridSize="10" guides="1" tooltips="1" connect="1" arrows="1" fold="1" page="0" pageScale="1" pageWidth="850" pageHeight="1100" background="none" math="0" shadow="0">
            <root>
                <mxCell id="0"/>
                <mxCell id="1" parent="0"/>
                <mxCell id="6" value="" style="edgeStyle=none;html=1;sketch=1;curveFitting=1;jiggle=2;" parent="1" source="3" target="4" edge="1">
                    <mxGeometry relative="1" as="geometry"/>
                </mxCell>
                <mxCell id="3" value="constvars" style="whiteSpace=wrap;html=1;sketch=1;curveFitting=1;jiggle=2;" parent="1" vertex="1">
                    <mxGeometry x="60" y="160" width="70" height="40" as="geometry"/>
                </mxCell>
                <mxCell id="4" value="funciones" style="whiteSpace=wrap;html=1;sketch=1;curveFitting=1;jiggle=2;" parent="1" vertex="1">
                    <mxGeometry x="200" y="160" width="70" height="40" as="geometry"/>
                </mxCell>
                <mxCell id="5" value="" style="endArrow=classic;html=1;entryX=0;entryY=0.5;entryDx=0;entryDy=0;sketch=1;curveFitting=1;jiggle=2;" parent="1" target="3" edge="1">
                    <mxGeometry width="50" height="50" relative="1" as="geometry">
                        <mxPoint x="20" y="180" as="sourcePoint"/>
                        <mxPoint x="60" y="150" as="targetPoint"/>
                    </mxGeometry>
                </mxCell>
                <mxCell id="7" value="" style="endArrow=classic;html=1;sketch=1;curveFitting=1;jiggle=2;" parent="1" edge="1">
                    <mxGeometry width="50" height="50" relative="1" as="geometry">
                        <mxPoint x="30" y="180" as="sourcePoint"/>
                        <mxPoint x="150" y="180" as="targetPoint"/>
                        <Array as="points">
                            <mxPoint x="30" y="140"/>
                            <mxPoint x="150" y="140"/>
                        </Array>
                    </mxGeometry>
                </mxCell>
                <mxCell id="8" value="" style="endArrow=classic;html=1;sketch=1;curveFitting=1;jiggle=2;" parent="1" edge="1">
                    <mxGeometry width="50" height="50" relative="1" as="geometry">
                        <mxPoint x="175" y="180" as="sourcePoint"/>
                        <mxPoint x="295" y="180" as="targetPoint"/>
                        <Array as="points">
                            <mxPoint x="175" y="140"/>
                            <mxPoint x="295" y="140"/>
                        </Array>
                    </mxGeometry>
                </mxCell>
                <mxCell id="9" value="" style="endArrow=classic;html=1;exitX=1;exitY=0.5;exitDx=0;exitDy=0;sketch=1;curveFitting=1;jiggle=2;" parent="1" source="4" edge="1">
                    <mxGeometry width="50" height="50" relative="1" as="geometry">
                        <mxPoint x="300" y="240" as="sourcePoint"/>
                        <mxPoint x="320" y="180" as="targetPoint"/>
                    </mxGeometry>
                </mxCell>
                <mxCell id="15" value="" style="edgeStyle=none;html=1;sketch=1;curveFitting=1;jiggle=2;" parent="1" source="11" target="14" edge="1">
                    <mxGeometry relative="1" as="geometry"/>
                </mxCell>
                <mxCell id="11" value="constante" style="whiteSpace=wrap;html=1;sketch=1;curveFitting=1;jiggle=2;" parent="1" vertex="1">
                    <mxGeometry x="60" y="280" width="70" height="40" as="geometry"/>
                </mxCell>
                <mxCell id="12" value="" style="endArrow=classic;html=1;entryX=0;entryY=0.5;entryDx=0;entryDy=0;sketch=1;curveFitting=1;jiggle=2;" parent="1" edge="1">
                    <mxGeometry width="50" height="50" relative="1" as="geometry">
                        <mxPoint x="20" y="299.58" as="sourcePoint"/>
                        <mxPoint x="60" y="299.58" as="targetPoint"/>
                    </mxGeometry>
                </mxCell>
                <mxCell id="13" value="" style="endArrow=classic;html=1;sketch=1;curveFitting=1;jiggle=2;" parent="1" edge="1">
                    <mxGeometry width="50" height="50" relative="1" as="geometry">
                        <mxPoint x="35" y="300" as="sourcePoint"/>
                        <mxPoint x="155" y="300" as="targetPoint"/>
                        <Array as="points">
                            <mxPoint x="35" y="260"/>
                            <mxPoint x="155" y="260"/>
                        </Array>
                    </mxGeometry>
                </mxCell>
                <mxCell id="17" value="" style="edgeStyle=none;html=1;sketch=1;curveFitting=1;jiggle=2;" parent="1" source="14" target="16" edge="1">
                    <mxGeometry relative="1" as="geometry"/>
                </mxCell>
                <mxCell id="14" value="tipo" style="whiteSpace=wrap;html=1;sketch=1;curveFitting=1;jiggle=2;" parent="1" vertex="1">
                    <mxGeometry x="200" y="280" width="70" height="40" as="geometry"/>
                </mxCell>
                <mxCell id="19" value="" style="edgeStyle=none;html=1;sketch=1;curveFitting=1;jiggle=2;" parent="1" source="16" target="18" edge="1">
                    <mxGeometry relative="1" as="geometry"/>
                </mxCell>
                <mxCell id="16" value="ide" style="ellipse;whiteSpace=wrap;html=1;aspect=fixed;sketch=1;curveFitting=1;jiggle=2;" parent="1" vertex="1">
                    <mxGeometry x="320" y="280" width="40" height="40" as="geometry"/>
                </mxCell>
                <mxCell id="22" value="" style="edgeStyle=none;html=1;sketch=1;curveFitting=1;jiggle=2;" parent="1" source="18" target="21" edge="1">
                    <mxGeometry relative="1" as="geometry"/>
                </mxCell>
                <mxCell id="18" value="dimen" style="whiteSpace=wrap;html=1;sketch=1;curveFitting=1;jiggle=2;" parent="1" vertex="1">
                    <mxGeometry x="410" y="280" width="70" height="40" as="geometry"/>
                </mxCell>
                <mxCell id="20" value="" style="endArrow=classic;html=1;sketch=1;curveFitting=1;jiggle=2;" parent="1" edge="1">
                    <mxGeometry width="50" height="50" relative="1" as="geometry">
                        <mxPoint x="385" y="300" as="sourcePoint"/>
                        <mxPoint x="505" y="300" as="targetPoint"/>
                        <Array as="points">
                            <mxPoint x="385" y="260"/>
                            <mxPoint x="505" y="260"/>
                        </Array>
                    </mxGeometry>
                </mxCell>
                <mxCell id="24" style="edgeStyle=none;html=1;exitX=0.5;exitY=0;exitDx=0;exitDy=0;entryX=0;entryY=0.5;entryDx=0;entryDy=0;sketch=1;curveFitting=1;jiggle=2;" parent="1" source="21" target="23" edge="1">
                    <mxGeometry relative="1" as="geometry">
                        <Array as="points">
                            <mxPoint x="580" y="220"/>
                        </Array>
                    </mxGeometry>
                </mxCell>
                <mxCell id="26" value="" style="edgeStyle=none;html=1;sketch=1;curveFitting=1;jiggle=2;" parent="1" source="21" target="25" edge="1">
                    <mxGeometry relative="1" as="geometry"/>
                </mxCell>
                <mxCell id="21" value=":=" style="ellipse;whiteSpace=wrap;html=1;aspect=fixed;sketch=1;curveFitting=1;jiggle=2;" parent="1" vertex="1">
                    <mxGeometry x="560" y="280" width="40" height="40" as="geometry"/>
                </mxCell>
                <mxCell id="28" value="" style="edgeStyle=none;html=1;sketch=1;curveFitting=1;jiggle=2;" parent="1" source="23" target="27" edge="1">
                    <mxGeometry relative="1" as="geometry"/>
                </mxCell>
                <mxCell id="36" style="edgeStyle=none;html=1;exitX=0.5;exitY=0;exitDx=0;exitDy=0;entryX=0;entryY=0.5;entryDx=0;entryDy=0;sketch=1;curveFitting=1;jiggle=2;" parent="1" source="23" target="34" edge="1">
                    <mxGeometry relative="1" as="geometry">
                        <Array as="points">
                            <mxPoint x="630" y="140"/>
                        </Array>
                    </mxGeometry>
                </mxCell>
                <mxCell id="23" value="[" style="ellipse;whiteSpace=wrap;html=1;aspect=fixed;sketch=1;curveFitting=1;jiggle=2;" parent="1" vertex="1">
                    <mxGeometry x="610" y="200" width="40" height="40" as="geometry"/>
                </mxCell>
                <mxCell id="39" value="" style="edgeStyle=none;html=1;sketch=1;curveFitting=1;jiggle=2;" parent="1" source="25" target="38" edge="1">
                    <mxGeometry relative="1" as="geometry"/>
                </mxCell>
                <mxCell id="25" value="cte" style="whiteSpace=wrap;html=1;sketch=1;curveFitting=1;jiggle=2;" parent="1" vertex="1">
                    <mxGeometry x="680" y="280" width="70" height="40" as="geometry"/>
                </mxCell>
                <mxCell id="30" value="" style="edgeStyle=none;html=1;sketch=1;curveFitting=1;jiggle=2;" parent="1" source="27" target="29" edge="1">
                    <mxGeometry relative="1" as="geometry"/>
                </mxCell>
                <mxCell id="27" value="cte" style="whiteSpace=wrap;html=1;sketch=1;curveFitting=1;jiggle=2;" parent="1" vertex="1">
                    <mxGeometry x="680" y="200" width="70" height="40" as="geometry"/>
                </mxCell>
                <mxCell id="40" style="edgeStyle=none;html=1;exitX=0.5;exitY=1;exitDx=0;exitDy=0;sketch=1;curveFitting=1;jiggle=2;" parent="1" source="29" edge="1">
                    <mxGeometry relative="1" as="geometry">
                        <mxPoint x="810.3333333333335" y="300" as="targetPoint"/>
                    </mxGeometry>
                </mxCell>
                <mxCell id="29" value="]" style="ellipse;whiteSpace=wrap;html=1;aspect=fixed;sketch=1;curveFitting=1;jiggle=2;" parent="1" vertex="1">
                    <mxGeometry x="790" y="200" width="40" height="40" as="geometry"/>
                </mxCell>
                <mxCell id="37" style="edgeStyle=none;html=1;exitX=1;exitY=0.5;exitDx=0;exitDy=0;entryX=0.5;entryY=0;entryDx=0;entryDy=0;sketch=1;curveFitting=1;jiggle=2;" parent="1" source="34" target="29" edge="1">
                    <mxGeometry relative="1" as="geometry">
                        <Array as="points">
                            <mxPoint x="810" y="140"/>
                        </Array>
                    </mxGeometry>
                </mxCell>
                <mxCell id="34" value="," style="ellipse;whiteSpace=wrap;html=1;aspect=fixed;sketch=1;curveFitting=1;jiggle=2;" parent="1" vertex="1">
                    <mxGeometry x="695" y="120" width="40" height="40" as="geometry"/>
                </mxCell>
                <mxCell id="38" value=";" style="ellipse;whiteSpace=wrap;html=1;aspect=fixed;sketch=1;curveFitting=1;jiggle=2;" parent="1" vertex="1">
                    <mxGeometry x="860" y="280" width="40" height="40" as="geometry"/>
                </mxCell>
                <mxCell id="41" value="" style="endArrow=classic;html=1;exitX=1;exitY=0.5;exitDx=0;exitDy=0;sketch=1;curveFitting=1;jiggle=2;" parent="1" source="38" edge="1">
                    <mxGeometry width="50" height="50" relative="1" as="geometry">
                        <mxPoint x="920" y="330" as="sourcePoint"/>
                        <mxPoint x="950" y="300" as="targetPoint"/>
                    </mxGeometry>
                </mxCell>
                <mxCell id="42" value="" style="endArrow=classic;html=1;sketch=1;curveFitting=1;jiggle=2;" parent="1" edge="1">
                    <mxGeometry width="50" height="50" relative="1" as="geometry">
                        <mxPoint x="530" y="300" as="sourcePoint"/>
                        <mxPoint x="840" y="300" as="targetPoint"/>
                        <Array as="points">
                            <mxPoint x="530" y="110"/>
                            <mxPoint x="840" y="110"/>
                        </Array>
                    </mxGeometry>
                </mxCell>
                <mxCell id="45" style="edgeStyle=none;html=1;exitX=0;exitY=0.5;exitDx=0;exitDy=0;sketch=1;curveFitting=1;jiggle=2;" parent="1" source="43" edge="1">
                    <mxGeometry relative="1" as="geometry">
                        <mxPoint x="290" y="300" as="targetPoint"/>
                        <Array as="points">
                            <mxPoint x="290" y="400"/>
                        </Array>
                    </mxGeometry>
                </mxCell>
                <mxCell id="43" value="," style="ellipse;whiteSpace=wrap;html=1;aspect=fixed;sketch=1;curveFitting=1;jiggle=2;" parent="1" vertex="1">
                    <mxGeometry x="560" y="380" width="40" height="40" as="geometry"/>
                </mxCell>
                <mxCell id="44" value="" style="endArrow=classic;html=1;entryX=1;entryY=0.5;entryDx=0;entryDy=0;sketch=1;curveFitting=1;jiggle=2;" parent="1" target="43" edge="1">
                    <mxGeometry width="50" height="50" relative="1" as="geometry">
                        <mxPoint x="830" y="300" as="sourcePoint"/>
                        <mxPoint x="760" y="380" as="targetPoint"/>
                        <Array as="points">
                            <mxPoint x="830" y="400"/>
                        </Array>
                    </mxGeometry>
                </mxCell>
                <mxCell id="95" style="edgeStyle=none;html=1;exitX=1;exitY=0.5;exitDx=0;exitDy=0;sketch=1;curveFitting=1;jiggle=2;" parent="1" source="47" edge="1">
                    <mxGeometry relative="1" as="geometry">
                        <mxPoint x="225" y="524.7142857142856" as="targetPoint"/>
                    </mxGeometry>
                </mxCell>
                <mxCell id="47" value="entero" style="rounded=1;whiteSpace=wrap;html=1;sketch=1;curveFitting=1;jiggle=2;" parent="1" vertex="1">
                    <mxGeometry x="75" y="510" width="65" height="30" as="geometry"/>
                </mxCell>
                <mxCell id="103" style="edgeStyle=none;html=1;exitX=1;exitY=0.5;exitDx=0;exitDy=0;sketch=1;curveFitting=1;jiggle=2;" parent="1" source="48" edge="1">
                    <mxGeometry relative="1" as="geometry">
                        <mxPoint x="190" y="520" as="targetPoint"/>
                        <Array as="points">
                            <mxPoint x="190" y="575"/>
                        </Array>
                    </mxGeometry>
                </mxCell>
                <mxCell id="48" value="decimal" style="rounded=1;whiteSpace=wrap;html=1;sketch=1;curveFitting=1;jiggle=2;" parent="1" vertex="1">
                    <mxGeometry x="75" y="560" width="65" height="30" as="geometry"/>
                </mxCell>
                <mxCell id="104" style="edgeStyle=none;html=1;exitX=1;exitY=0.5;exitDx=0;exitDy=0;sketch=1;curveFitting=1;jiggle=2;" parent="1" source="50" edge="1">
                    <mxGeometry relative="1" as="geometry">
                        <mxPoint x="190" y="520" as="targetPoint"/>
                        <Array as="points">
                            <mxPoint x="190" y="625"/>
                        </Array>
                    </mxGeometry>
                </mxCell>
                <mxCell id="50" value="logico" style="rounded=1;whiteSpace=wrap;html=1;sketch=1;curveFitting=1;jiggle=2;" parent="1" vertex="1">
                    <mxGeometry x="75" y="610" width="65" height="30" as="geometry"/>
                </mxCell>
                <mxCell id="105" style="edgeStyle=none;html=1;exitX=1;exitY=0.5;exitDx=0;exitDy=0;sketch=1;curveFitting=1;jiggle=2;" parent="1" source="51" edge="1">
                    <mxGeometry relative="1" as="geometry">
                        <mxPoint x="190" y="520" as="targetPoint"/>
                        <Array as="points">
                            <mxPoint x="190" y="675"/>
                        </Array>
                    </mxGeometry>
                </mxCell>
                <mxCell id="51" value="palabra" style="rounded=1;whiteSpace=wrap;html=1;sketch=1;curveFitting=1;jiggle=2;" parent="1" vertex="1">
                    <mxGeometry x="75" y="660" width="65" height="30" as="geometry"/>
                </mxCell>
                <mxCell id="52" value="" style="endArrow=classic;html=1;fontFamily=Helvetica;fontSize=11;fontColor=default;align=center;strokeColor=default;sketch=1;curveFitting=1;jiggle=2;" parent="1" target="47" edge="1">
                    <mxGeometry width="50" height="50" relative="1" as="geometry">
                        <mxPoint x="-25" y="600" as="sourcePoint"/>
                        <mxPoint x="25" y="590" as="targetPoint"/>
                        <Array as="points">
                            <mxPoint x="25" y="600"/>
                            <mxPoint x="25" y="525"/>
                        </Array>
                    </mxGeometry>
                </mxCell>
                <mxCell id="53" value="" style="endArrow=classic;html=1;entryX=0;entryY=0.5;entryDx=0;entryDy=0;sketch=1;curveFitting=1;jiggle=2;" parent="1" target="51" edge="1">
                    <mxGeometry width="50" height="50" relative="1" as="geometry">
                        <mxPoint x="25" y="600" as="sourcePoint"/>
                        <mxPoint x="35" y="630" as="targetPoint"/>
                        <Array as="points">
                            <mxPoint x="25" y="675"/>
                        </Array>
                    </mxGeometry>
                </mxCell>
                <mxCell id="54" value="" style="endArrow=classic;html=1;entryX=0;entryY=0.5;entryDx=0;entryDy=0;sketch=1;curveFitting=1;jiggle=2;" parent="1" target="48" edge="1">
                    <mxGeometry width="50" height="50" relative="1" as="geometry">
                        <mxPoint x="25" y="575" as="sourcePoint"/>
                        <mxPoint x="-35" y="640" as="targetPoint"/>
                    </mxGeometry>
                </mxCell>
                <mxCell id="55" value="" style="endArrow=classic;html=1;sketch=1;curveFitting=1;jiggle=2;" parent="1" edge="1">
                    <mxGeometry width="50" height="50" relative="1" as="geometry">
                        <mxPoint x="25" y="630" as="sourcePoint"/>
                        <mxPoint x="65" y="630" as="targetPoint"/>
                    </mxGeometry>
                </mxCell>
                <mxCell id="77" style="edgeStyle=none;html=1;exitX=1;exitY=0.5;exitDx=0;exitDy=0;sketch=1;curveFitting=1;jiggle=2;" parent="1" source="64" edge="1">
                    <mxGeometry relative="1" as="geometry">
                        <mxPoint x="234.99999999999977" y="-74.71428571428567" as="targetPoint"/>
                    </mxGeometry>
                </mxCell>
                <mxCell id="64" value="Ent" style="rounded=1;whiteSpace=wrap;html=1;sketch=1;curveFitting=1;jiggle=2;" parent="1" vertex="1">
                    <mxGeometry x="65" y="-90" width="65" height="30" as="geometry"/>
                </mxCell>
                <mxCell id="78" style="edgeStyle=none;html=1;exitX=1;exitY=0.5;exitDx=0;exitDy=0;sketch=1;curveFitting=1;jiggle=2;" parent="1" source="66" edge="1">
                    <mxGeometry relative="1" as="geometry">
                        <mxPoint x="185" y="-80" as="targetPoint"/>
                        <Array as="points">
                            <mxPoint x="185" y="-25"/>
                        </Array>
                    </mxGeometry>
                </mxCell>
                <mxCell id="66" value="Dec" style="rounded=1;whiteSpace=wrap;html=1;sketch=1;curveFitting=1;jiggle=2;" parent="1" vertex="1">
                    <mxGeometry x="65" y="-40" width="65" height="30" as="geometry"/>
                </mxCell>
                <mxCell id="79" style="edgeStyle=none;html=1;exitX=1;exitY=0.5;exitDx=0;exitDy=0;sketch=1;curveFitting=1;jiggle=2;" parent="1" source="68" edge="1">
                    <mxGeometry relative="1" as="geometry">
                        <mxPoint x="185" y="-80" as="targetPoint"/>
                        <Array as="points">
                            <mxPoint x="185" y="25"/>
                        </Array>
                    </mxGeometry>
                </mxCell>
                <mxCell id="68" value="CtA" style="rounded=1;whiteSpace=wrap;html=1;sketch=1;curveFitting=1;jiggle=2;" parent="1" vertex="1">
                    <mxGeometry x="65" y="10" width="65" height="30" as="geometry"/>
                </mxCell>
                <mxCell id="80" style="edgeStyle=none;html=1;exitX=1;exitY=0.5;exitDx=0;exitDy=0;sketch=1;curveFitting=1;jiggle=2;" parent="1" source="70" edge="1">
                    <mxGeometry relative="1" as="geometry">
                        <mxPoint x="185" y="-80" as="targetPoint"/>
                        <Array as="points">
                            <mxPoint x="185" y="75"/>
                        </Array>
                    </mxGeometry>
                </mxCell>
                <mxCell id="70" value="CtL" style="rounded=1;whiteSpace=wrap;html=1;sketch=1;curveFitting=1;jiggle=2;" parent="1" vertex="1">
                    <mxGeometry x="65" y="60" width="65" height="30" as="geometry"/>
                </mxCell>
                <mxCell id="71" value="" style="endArrow=classic;html=1;fontFamily=Helvetica;fontSize=11;fontColor=default;align=center;strokeColor=default;sketch=1;curveFitting=1;jiggle=2;" parent="1" target="64" edge="1">
                    <mxGeometry width="50" height="50" relative="1" as="geometry">
                        <mxPoint x="-35" as="sourcePoint"/>
                        <mxPoint x="15" y="-10" as="targetPoint"/>
                        <Array as="points">
                            <mxPoint x="15"/>
                            <mxPoint x="15" y="-75"/>
                        </Array>
                    </mxGeometry>
                </mxCell>
                <mxCell id="72" value="" style="endArrow=classic;html=1;entryX=0;entryY=0.5;entryDx=0;entryDy=0;sketch=1;curveFitting=1;jiggle=2;" parent="1" target="70" edge="1">
                    <mxGeometry width="50" height="50" relative="1" as="geometry">
                        <mxPoint x="15" as="sourcePoint"/>
                        <mxPoint x="25" y="30" as="targetPoint"/>
                        <Array as="points">
                            <mxPoint x="15" y="75"/>
                        </Array>
                    </mxGeometry>
                </mxCell>
                <mxCell id="73" value="" style="endArrow=classic;html=1;entryX=0;entryY=0.5;entryDx=0;entryDy=0;sketch=1;curveFitting=1;jiggle=2;" parent="1" target="66" edge="1">
                    <mxGeometry width="50" height="50" relative="1" as="geometry">
                        <mxPoint x="15" y="-25" as="sourcePoint"/>
                        <mxPoint x="-45" y="40" as="targetPoint"/>
                    </mxGeometry>
                </mxCell>
                <mxCell id="74" value="" style="endArrow=classic;html=1;sketch=1;curveFitting=1;jiggle=2;" parent="1" edge="1">
                    <mxGeometry width="50" height="50" relative="1" as="geometry">
                        <mxPoint x="15" y="30" as="sourcePoint"/>
                        <mxPoint x="55" y="30" as="targetPoint"/>
                    </mxGeometry>
                </mxCell>
                <mxCell id="85" value="" style="edgeStyle=none;html=1;sketch=1;curveFitting=1;jiggle=2;" parent="1" source="82" target="84" edge="1">
                    <mxGeometry relative="1" as="geometry"/>
                </mxCell>
                <mxCell id="82" value="[" style="ellipse;whiteSpace=wrap;html=1;aspect=fixed;sketch=1;curveFitting=1;jiggle=2;" parent="1" vertex="1">
                    <mxGeometry x="480" y="-40" width="40" height="40" as="geometry"/>
                </mxCell>
                <mxCell id="83" value="" style="endArrow=classic;html=1;entryX=0;entryY=0.5;entryDx=0;entryDy=0;sketch=1;curveFitting=1;jiggle=2;" parent="1" target="82" edge="1">
                    <mxGeometry width="50" height="50" relative="1" as="geometry">
                        <mxPoint x="440" y="-20" as="sourcePoint"/>
                        <mxPoint x="470" as="targetPoint"/>
                    </mxGeometry>
                </mxCell>
                <mxCell id="87" value="" style="edgeStyle=none;html=1;sketch=1;curveFitting=1;jiggle=2;" parent="1" source="84" target="86" edge="1">
                    <mxGeometry relative="1" as="geometry"/>
                </mxCell>
                <mxCell id="84" value="Ide" style="ellipse;whiteSpace=wrap;html=1;aspect=fixed;sketch=1;curveFitting=1;jiggle=2;" parent="1" vertex="1">
                    <mxGeometry x="580" y="-40" width="40" height="40" as="geometry"/>
                </mxCell>
                <mxCell id="86" value="]" style="ellipse;whiteSpace=wrap;html=1;aspect=fixed;sketch=1;curveFitting=1;jiggle=2;" parent="1" vertex="1">
                    <mxGeometry x="680" y="-40" width="40" height="40" as="geometry"/>
                </mxCell>
                <mxCell id="90" style="edgeStyle=none;html=1;exitX=1;exitY=0.5;exitDx=0;exitDy=0;sketch=1;curveFitting=1;jiggle=2;" parent="1" source="88" edge="1">
                    <mxGeometry relative="1" as="geometry">
                        <mxPoint x="650" y="-20" as="targetPoint"/>
                        <Array as="points">
                            <mxPoint x="650" y="40"/>
                        </Array>
                    </mxGeometry>
                </mxCell>
                <mxCell id="91" style="edgeStyle=none;html=1;exitX=0;exitY=0.5;exitDx=0;exitDy=0;sketch=1;curveFitting=1;jiggle=2;" parent="1" source="88" edge="1">
                    <mxGeometry relative="1" as="geometry">
                        <mxPoint x="550" y="-20" as="targetPoint"/>
                        <Array as="points">
                            <mxPoint x="550" y="40"/>
                        </Array>
                    </mxGeometry>
                </mxCell>
                <mxCell id="88" value="cte" style="whiteSpace=wrap;html=1;sketch=1;curveFitting=1;jiggle=2;" parent="1" vertex="1">
                    <mxGeometry x="572.5" y="20" width="55" height="40" as="geometry"/>
                </mxCell>
                <mxCell id="93" value="" style="endArrow=classic;html=1;entryX=0;entryY=0.5;entryDx=0;entryDy=0;sketch=1;curveFitting=1;jiggle=2;" parent="1" edge="1">
                    <mxGeometry width="50" height="50" relative="1" as="geometry">
                        <mxPoint x="720" y="-20.369999999999997" as="sourcePoint"/>
                        <mxPoint x="760" y="-20.369999999999997" as="targetPoint"/>
                    </mxGeometry>
                </mxCell>
                <mxCell id="106" style="edgeStyle=none;html=1;exitX=1;exitY=0.5;exitDx=0;exitDy=0;sketch=1;curveFitting=1;jiggle=2;" parent="1" source="96" edge="1">
                    <mxGeometry relative="1" as="geometry">
                        <mxPoint x="190" y="520" as="targetPoint"/>
                        <Array as="points">
                            <mxPoint x="190" y="725"/>
                        </Array>
                    </mxGeometry>
                </mxCell>
                <mxCell id="96" value="sintipo" style="rounded=1;whiteSpace=wrap;html=1;sketch=1;curveFitting=1;jiggle=2;" parent="1" vertex="1">
                    <mxGeometry x="75" y="710" width="65" height="30" as="geometry"/>
                </mxCell>
                <mxCell id="97" value="" style="endArrow=classic;html=1;entryX=0;entryY=0.5;entryDx=0;entryDy=0;sketch=1;curveFitting=1;jiggle=2;" parent="1" target="96" edge="1">
                    <mxGeometry width="50" height="50" relative="1" as="geometry">
                        <mxPoint x="25" y="600" as="sourcePoint"/>
                        <mxPoint x="185" y="560" as="targetPoint"/>
                        <Array as="points">
                            <mxPoint x="25" y="725"/>
                        </Array>
                    </mxGeometry>
                </mxCell>
                <mxCell id="100" value="" style="endArrow=classic;html=1;sketch=1;curveFitting=1;jiggle=2;" parent="1" edge="1">
                    <mxGeometry width="50" height="50" relative="1" as="geometry">
                        <mxPoint x="920" y="300" as="sourcePoint"/>
                        <mxPoint x="30" y="300" as="targetPoint"/>
                        <Array as="points">
                            <mxPoint x="920" y="440"/>
                            <mxPoint x="30" y="440"/>
                        </Array>
                    </mxGeometry>
                </mxCell>
                <mxCell id="115" value="" style="edgeStyle=none;hachureGap=4;html=1;fontFamily=Architects Daughter;fontSource=https%3A%2F%2Ffonts.googleapis.com%2Fcss%3Ffamily%3DArchitects%2BDaughter;fontSize=16;sketch=1;curveFitting=1;jiggle=2;" parent="1" source="107" target="108" edge="1">
                    <mxGeometry relative="1" as="geometry"/>
                </mxCell>
                <mxCell id="107" value="tipo" style="rounded=1;whiteSpace=wrap;html=1;sketch=1;curveFitting=1;jiggle=2;" parent="1" vertex="1">
                    <mxGeometry x="380" y="605" width="65" height="30" as="geometry"/>
                </mxCell>
                <mxCell id="116" value="" style="edgeStyle=none;hachureGap=4;html=1;fontFamily=Architects Daughter;fontSource=https%3A%2F%2Ffonts.googleapis.com%2Fcss%3Ffamily%3DArchitects%2BDaughter;fontSize=16;sketch=1;curveFitting=1;jiggle=2;" parent="1" source="108" target="109" edge="1">
                    <mxGeometry relative="1" as="geometry"/>
                </mxCell>
                <mxCell id="108" value="Iden" style="ellipse;whiteSpace=wrap;html=1;aspect=fixed;sketch=1;curveFitting=1;jiggle=2;" parent="1" vertex="1">
                    <mxGeometry x="490" y="600" width="40" height="40" as="geometry"/>
                </mxCell>
                <mxCell id="117" value="" style="edgeStyle=none;hachureGap=4;html=1;fontFamily=Architects Daughter;fontSource=https%3A%2F%2Ffonts.googleapis.com%2Fcss%3Ffamily%3DArchitects%2BDaughter;fontSize=16;sketch=1;curveFitting=1;jiggle=2;" parent="1" source="109" target="110" edge="1">
                    <mxGeometry relative="1" as="geometry"/>
                </mxCell>
                <mxCell id="109" value="(" style="ellipse;whiteSpace=wrap;html=1;aspect=fixed;sketch=1;curveFitting=1;jiggle=2;" parent="1" vertex="1">
                    <mxGeometry x="580" y="600" width="40" height="40" as="geometry"/>
                </mxCell>
                <mxCell id="118" value="" style="edgeStyle=none;hachureGap=4;html=1;fontFamily=Architects Daughter;fontSource=https%3A%2F%2Ffonts.googleapis.com%2Fcss%3Ffamily%3DArchitects%2BDaughter;fontSize=16;sketch=1;curveFitting=1;jiggle=2;" parent="1" source="110" target="111" edge="1">
                    <mxGeometry relative="1" as="geometry"/>
                </mxCell>
                <mxCell id="110" value="params" style="rounded=1;whiteSpace=wrap;html=1;sketch=1;curveFitting=1;jiggle=2;" parent="1" vertex="1">
                    <mxGeometry x="670" y="605" width="65" height="30" as="geometry"/>
                </mxCell>
                <mxCell id="119" value="" style="edgeStyle=none;hachureGap=4;html=1;fontFamily=Architects Daughter;fontSource=https%3A%2F%2Ffonts.googleapis.com%2Fcss%3Ffamily%3DArchitects%2BDaughter;fontSize=16;sketch=1;curveFitting=1;jiggle=2;" parent="1" source="111" target="112" edge="1">
                    <mxGeometry relative="1" as="geometry"/>
                </mxCell>
                <mxCell id="111" value=")" style="ellipse;whiteSpace=wrap;html=1;aspect=fixed;sketch=1;curveFitting=1;jiggle=2;" parent="1" vertex="1">
                    <mxGeometry x="800" y="600" width="40" height="40" as="geometry"/>
                </mxCell>
                <mxCell id="120" value="" style="edgeStyle=none;hachureGap=4;html=1;fontFamily=Architects Daughter;fontSource=https%3A%2F%2Ffonts.googleapis.com%2Fcss%3Ffamily%3DArchitects%2BDaughter;fontSize=16;sketch=1;curveFitting=1;jiggle=2;" parent="1" source="112" target="113" edge="1">
                    <mxGeometry relative="1" as="geometry"/>
                </mxCell>
                <mxCell id="112" value="bloque" style="rounded=1;whiteSpace=wrap;html=1;sketch=1;curveFitting=1;jiggle=2;" parent="1" vertex="1">
                    <mxGeometry x="900" y="605" width="65" height="30" as="geometry"/>
                </mxCell>
                <mxCell id="113" value=";" style="ellipse;whiteSpace=wrap;html=1;aspect=fixed;sketch=1;curveFitting=1;jiggle=2;" parent="1" vertex="1">
                    <mxGeometry x="1030" y="600" width="40" height="40" as="geometry"/>
                </mxCell>
                <mxCell id="114" value="" style="endArrow=classic;html=1;hachureGap=4;fontFamily=Architects Daughter;fontSource=https%3A%2F%2Ffonts.googleapis.com%2Fcss%3Ffamily%3DArchitects%2BDaughter;fontSize=16;entryX=0;entryY=0.5;entryDx=0;entryDy=0;sketch=1;curveFitting=1;jiggle=2;" parent="1" target="107" edge="1">
                    <mxGeometry width="50" height="50" relative="1" as="geometry">
                        <mxPoint x="330" y="620" as="sourcePoint"/>
                        <mxPoint x="340" y="620" as="targetPoint"/>
                    </mxGeometry>
                </mxCell>
                <mxCell id="121" value="" style="endArrow=classic;html=1;hachureGap=4;fontFamily=Architects Daughter;fontSource=https%3A%2F%2Ffonts.googleapis.com%2Fcss%3Ffamily%3DArchitects%2BDaughter;fontSize=16;exitX=1;exitY=0.5;exitDx=0;exitDy=0;sketch=1;curveFitting=1;jiggle=2;" parent="1" source="113" edge="1">
                    <mxGeometry width="50" height="50" relative="1" as="geometry">
                        <mxPoint x="1180" y="710" as="sourcePoint"/>
                        <mxPoint x="1130" y="620" as="targetPoint"/>
                    </mxGeometry>
                </mxCell>
                <mxCell id="123" value="" style="endArrow=classic;html=1;sketch=1;curveFitting=1;jiggle=2;" parent="1" edge="1">
                    <mxGeometry width="50" height="50" relative="1" as="geometry">
                        <mxPoint x="640" y="620" as="sourcePoint"/>
                        <mxPoint x="760" y="620" as="targetPoint"/>
                        <Array as="points">
                            <mxPoint x="640" y="580"/>
                            <mxPoint x="760" y="580"/>
                        </Array>
                    </mxGeometry>
                </mxCell>
                <mxCell id="124" value="funciones" style="text;html=1;align=center;verticalAlign=middle;resizable=0;points=[];autosize=1;strokeColor=none;fillColor=none;fontSize=20;fontFamily=Architects Daughter;hachureGap=4;fontSource=https%3A%2F%2Ffonts.googleapis.com%2Fcss%3Ffamily%3DArchitects%2BDaughter;sketch=1;curveFitting=1;jiggle=2;fontStyle=4" parent="1" vertex="1">
                    <mxGeometry x="310" y="555" width="110" height="40" as="geometry"/>
                </mxCell>
                <mxCell id="125" value="tipo" style="text;html=1;align=center;verticalAlign=middle;resizable=0;points=[];autosize=1;strokeColor=none;fillColor=none;fontSize=20;fontFamily=Architects Daughter;hachureGap=4;fontSource=https%3A%2F%2Ffonts.googleapis.com%2Fcss%3Ffamily%3DArchitects%2BDaughter;sketch=1;curveFitting=1;jiggle=2;fontStyle=4" parent="1" vertex="1">
                    <mxGeometry x="-50" y="520" width="60" height="40" as="geometry"/>
                </mxCell>
                <mxCell id="127" value="constvars" style="text;html=1;align=center;verticalAlign=middle;resizable=0;points=[];autosize=1;strokeColor=none;fillColor=none;fontSize=20;fontFamily=Architects Daughter;hachureGap=4;fontSource=https%3A%2F%2Ffonts.googleapis.com%2Fcss%3Ffamily%3DArchitects%2BDaughter;sketch=1;curveFitting=1;jiggle=2;fontStyle=4" parent="1" vertex="1">
                    <mxGeometry x="-100" y="240" width="120" height="40" as="geometry"/>
                </mxCell>
                <mxCell id="128" value="prgm" style="text;html=1;align=center;verticalAlign=middle;resizable=0;points=[];autosize=1;strokeColor=none;fillColor=none;fontSize=20;fontFamily=Architects Daughter;hachureGap=4;fontSource=https%3A%2F%2Ffonts.googleapis.com%2Fcss%3Ffamily%3DArchitects%2BDaughter;sketch=1;curveFitting=1;jiggle=2;fontStyle=4" parent="1" vertex="1">
                    <mxGeometry x="-75" y="110" width="70" height="40" as="geometry"/>
                </mxCell>
                <mxCell id="129" value="cte" style="text;html=1;align=center;verticalAlign=middle;resizable=0;points=[];autosize=1;strokeColor=none;fillColor=none;fontSize=20;fontFamily=Architects Daughter;hachureGap=4;fontSource=https%3A%2F%2Ffonts.googleapis.com%2Fcss%3Ffamily%3DArchitects%2BDaughter;sketch=1;curveFitting=1;jiggle=2;fontStyle=4" parent="1" vertex="1">
                    <mxGeometry x="-70" y="-90" width="60" height="40" as="geometry"/>
                </mxCell>
                <mxCell id="130" value="dimension" style="text;html=1;align=center;verticalAlign=middle;resizable=0;points=[];autosize=1;strokeColor=none;fillColor=none;fontSize=20;fontFamily=Architects Daughter;hachureGap=4;fontSource=https%3A%2F%2Ffonts.googleapis.com%2Fcss%3Ffamily%3DArchitects%2BDaughter;sketch=1;curveFitting=1;jiggle=2;fontStyle=4" parent="1" vertex="1">
                    <mxGeometry x="350" y="-80" width="110" height="40" as="geometry"/>
                </mxCell>
                <mxCell id="131" value="" style="endArrow=classic;html=1;hachureGap=4;fontFamily=Architects Daughter;fontSource=https%3A%2F%2Ffonts.googleapis.com%2Fcss%3Ffamily%3DArchitects%2BDaughter;fontSize=16;sketch=1;curveFitting=1;jiggle=2;" parent="1" edge="1">
                    <mxGeometry width="50" height="50" relative="1" as="geometry">
                        <mxPoint x="300" y="180" as="sourcePoint"/>
                        <mxPoint x="40" y="180" as="targetPoint"/>
                        <Array as="points">
                            <mxPoint x="300" y="230"/>
                            <mxPoint x="40" y="230"/>
                        </Array>
                    </mxGeometry>
                </mxCell>
                <mxCell id="138" value="" style="edgeStyle=none;hachureGap=4;html=1;fontFamily=Architects Daughter;fontSource=https%3A%2F%2Ffonts.googleapis.com%2Fcss%3Ffamily%3DArchitects%2BDaughter;fontSize=16;sketch=1;curveFitting=1;jiggle=2;" parent="1" source="132" target="135" edge="1">
                    <mxGeometry relative="1" as="geometry"/>
                </mxCell>
                <mxCell id="132" value="inicio" style="rounded=1;whiteSpace=wrap;html=1;sketch=1;curveFitting=1;jiggle=2;" parent="1" vertex="1">
                    <mxGeometry x="930" y="-35" width="65" height="30" as="geometry"/>
                </mxCell>
                <mxCell id="133" value="Block" style="text;html=1;align=center;verticalAlign=middle;resizable=0;points=[];autosize=1;strokeColor=none;fillColor=none;fontSize=20;fontFamily=Architects Daughter;hachureGap=4;fontSource=https%3A%2F%2Ffonts.googleapis.com%2Fcss%3Ffamily%3DArchitects%2BDaughter;sketch=1;curveFitting=1;jiggle=2;fontStyle=4" parent="1" vertex="1">
                    <mxGeometry x="870" y="-80" width="80" height="40" as="geometry"/>
                </mxCell>
                <mxCell id="134" value="" style="endArrow=classic;html=1;hachureGap=4;fontFamily=Architects Daughter;fontSource=https%3A%2F%2Ffonts.googleapis.com%2Fcss%3Ffamily%3DArchitects%2BDaughter;fontSize=16;entryX=0;entryY=0.5;entryDx=0;entryDy=0;sketch=1;curveFitting=1;jiggle=2;" parent="1" target="132" edge="1">
                    <mxGeometry width="50" height="50" relative="1" as="geometry">
                        <mxPoint x="890" y="-20" as="sourcePoint"/>
                        <mxPoint x="900" y="10" as="targetPoint"/>
                    </mxGeometry>
                </mxCell>
                <mxCell id="139" value="" style="edgeStyle=none;hachureGap=4;html=1;fontFamily=Architects Daughter;fontSource=https%3A%2F%2Ffonts.googleapis.com%2Fcss%3Ffamily%3DArchitects%2BDaughter;fontSize=16;sketch=1;curveFitting=1;jiggle=2;" parent="1" source="135" target="136" edge="1">
                    <mxGeometry relative="1" as="geometry"/>
                </mxCell>
                <mxCell id="135" value="constvars" style="rounded=1;whiteSpace=wrap;html=1;sketch=1;curveFitting=1;jiggle=2;" parent="1" vertex="1">
                    <mxGeometry x="1050" y="-35" width="65" height="30" as="geometry"/>
                </mxCell>
                <mxCell id="140" value="" style="edgeStyle=none;hachureGap=4;html=1;fontFamily=Architects Daughter;fontSource=https%3A%2F%2Ffonts.googleapis.com%2Fcss%3Ffamily%3DArchitects%2BDaughter;fontSize=16;sketch=1;curveFitting=1;jiggle=2;" parent="1" source="136" target="137" edge="1">
                    <mxGeometry relative="1" as="geometry"/>
                </mxCell>
                <mxCell id="136" value="Estatutos" style="rounded=1;whiteSpace=wrap;html=1;sketch=1;curveFitting=1;jiggle=2;" parent="1" vertex="1">
                    <mxGeometry x="1170" y="-35" width="65" height="30" as="geometry"/>
                </mxCell>
                <mxCell id="137" value="fin" style="rounded=1;whiteSpace=wrap;html=1;sketch=1;curveFitting=1;jiggle=2;" parent="1" vertex="1">
                    <mxGeometry x="1290" y="-35" width="65" height="30" as="geometry"/>
                </mxCell>
                <mxCell id="141" value="" style="endArrow=classic;html=1;hachureGap=4;fontFamily=Architects Daughter;fontSource=https%3A%2F%2Ffonts.googleapis.com%2Fcss%3Ffamily%3DArchitects%2BDaughter;fontSize=16;sketch=1;curveFitting=1;jiggle=2;" parent="1" edge="1">
                    <mxGeometry width="50" height="50" relative="1" as="geometry">
                        <mxPoint x="1355" y="-20.56" as="sourcePoint"/>
                        <mxPoint x="1395" y="-20.56" as="targetPoint"/>
                    </mxGeometry>
                </mxCell>
                <mxCell id="142" value="" style="endArrow=classic;html=1;sketch=1;curveFitting=1;jiggle=2;" parent="1" edge="1">
                    <mxGeometry width="50" height="50" relative="1" as="geometry">
                        <mxPoint x="1030" y="-20" as="sourcePoint"/>
                        <mxPoint x="1130" y="-20" as="targetPoint"/>
                        <Array as="points">
                            <mxPoint x="1030" y="-60"/>
                            <mxPoint x="1130" y="-60"/>
                        </Array>
                    </mxGeometry>
                </mxCell>
                <mxCell id="143" value="" style="endArrow=classic;html=1;sketch=1;curveFitting=1;jiggle=2;" parent="1" edge="1">
                    <mxGeometry width="50" height="50" relative="1" as="geometry">
                        <mxPoint x="1152.5" y="-20" as="sourcePoint"/>
                        <mxPoint x="1252.5" y="-20" as="targetPoint"/>
                        <Array as="points">
                            <mxPoint x="1152.5" y="-60"/>
                            <mxPoint x="1252.5" y="-60"/>
                        </Array>
                    </mxGeometry>
                </mxCell>
            </root>
        </mxGraphModel>
    </diagram>
</mxfile>